<svg xmlns="http://www.w3.org/2000/svg" xmlns:xlink="http://www.w3.org/1999/xlink" xmlns:inkscape="http://www.inkscape.org/namespaces/inkscape" version="1.1" width="595.276" height="170.157" viewBox="0 0 595.276 170.157">
<defs>
<clipPath id="clip_0">
<path transform="matrix(1,0,0,-1,0,170.157)" d="M0 170.157H595.276V0H0Z"/>
</clipPath>
<path id="font_1_4" d="M.07499695 0H.18899536V.69499209H.07499695V0Z"/>
<path id="font_1_5" d="M.5319977 .69599917V.17799378L.18899536 .69599917H.07499695V0H.18899536V.5189972L.5319977 0H.6459961V.69599917H.5319977Z"/>
<path id="font_1_2" d="M.3019867 .69499209H.07499695V0H.3019867C.5249939 0 .67099 .1309967 .67099 .34498597 .67099 .55999758 .5249939 .69499209 .3019867 .69499209M.18899536 .09298706V.60198977H.3019867C.46598817 .60198977 .55400088 .5039978 .55400088 .34498597 .55400088 .18699646 .46598817 .09298706 .3019867 .09298706H.18899536Z"/>
<path id="font_1_6" d="M.746994 .34899903C.746994 .5569916 .58999636 .70399478 .3919983 .70399478 .19599915 .70399478 .036987306 .5569916 .036987306 .34899903 .036987306 .13999939 .19599915-.007003784 .3919983-.007003784 .58999636-.007003784 .746994 .13999939 .746994 .34899903M.1539917 .34899903C.1539917 .5059967 .2539978 .60398867 .3919983 .60398867 .5299988 .60398867 .6299896 .5059967 .6299896 .34899903 .6299896 .19198609 .5299988 .09199524 .3919983 .09199524 .2539978 .09199524 .1539917 .19198609 .1539917 .34899903Z"/>
<path id="font_1_3" d="M.45899964 .69599917H.07499695V0H.45899964V.09298706H.18899536V.30599977H.42900086V.39898683H.18899536V.6029968H.45899964V.69599917Z"/>
<path id="font_1_7" d="M.5439911 .19699097C.5439911 .45098878 .17599488 .35299684 .17599488 .5099945 .17599488 .57699587 .22698975 .60899356 .29299928 .6069946 .36499024 .6049957 .4059906 .56199648 .4099884 .5149994H.5359955C.526001 .6339874 .43199159 .70399478 .29899598 .70399478 .15699768 .70399478 .05999756 .6279907 .05999756 .5059967 .05999756 .25 .42900086 .35899354 .42900086 .19099427 .42900086 .13198853 .38398744 .08898926 .3039856 .08898926 .22499085 .08898926 .18499756 .1349945 .17999268 .19198609H.057998659C.057998659 .068984989 .16499329-.007003784 .3039856-.007003784 .45899964-.007003784 .5439911 .09298706 .5439911 .19699097Z"/>
<path id="font_1_1" d="M.5439911 0H.6639862L.4149933 .69599917H.2829895L.033996583 0H.15299988L.20298767 .14199829H.49398805L.5439911 0M.46199037 .23498535H.23498535L.34899903 .55799868 .46199037 .23498535Z"/>
<clipPath id="clip_2">
<path transform="matrix(1,0,0,-1,0,170.157)" d="M0 170.157H595.276V0H0Z"/>
</clipPath>
</defs>
<g inkscape:groupmode="layer" inkscape:label="Layer 1">
<g clip-path="url(#clip_0)">
<path transform="matrix(1,0,0,-1,169.7856,71.207)" d="M0 0C2.477 0 3.589 1.197 3.589 3.146 3.589 5.149 2.477 6.317 0 6.317H-3.506V0ZM0-2.587H-3.506V-10.434H-6.678V8.905H0C4.592 8.905 6.845 6.29 6.845 3.146 6.845 .391 5.037-2.587 0-2.587" fill="#1a60ac"/>
<path transform="matrix(1,0,0,-1,178.667,62.3023)" d="M0 0H13.496V-2.587H8.348V-19.338H5.176V-2.587H0Z" fill="#1a60ac"/>
<path transform="matrix(1,0,0,-1,196.6479,81.836)" d="M0 0C-1.141 0-2.032 .891-2.032 2.031-2.032 3.173-1.141 4.062 0 4.062 1.113 4.062 2.003 3.173 2.003 2.031 2.003 .891 1.113 0 0 0" fill="#1a60ac"/>
<path transform="matrix(1,0,0,-1,216.6582,73.015598)" d="M0 0H-4.174V-6.038H.112C2.254-6.038 3.562-4.952 3.562-3.089 3.562-1.168 2.115 0 0 0M-.25 8.126H-4.174V2.589H-.25C1.809 2.589 3.061 3.562 3.061 5.343 3.061 7.096 1.809 8.126-.25 8.126M.39-8.625H-7.346V10.713H.028C4.118 10.713 6.289 8.46 6.289 5.733 6.289 3.396 4.87 1.977 3.005 1.309 5.064 .947 6.734-1.112 6.734-3.422 6.734-6.372 4.341-8.625 .39-8.625" fill="#1a60ac"/>
<path transform="matrix(1,0,0,-1,230.0205,62.3023)" d="M0 0V-16.78H6.539V-19.338H-3.172V0Z" fill="#1a60ac"/>
<path transform="matrix(1,0,0,-1,248.0283,79.082)" d="M0 0C3.839 0 6.622 2.784 6.622 7.151 6.622 11.521 3.839 14.247 0 14.247-3.841 14.247-6.623 11.521-6.623 7.151-6.623 2.784-3.841 0 0 0M0-2.754C-5.454-2.754-9.878 1.336-9.878 7.151-9.878 12.94-5.454 17.031 0 17.031 5.508 17.031 9.877 12.94 9.877 7.151 9.877 1.336 5.508-2.754 0-2.754" fill="#1a60ac"/>
<path transform="matrix(1,0,0,-1,269.8511,62.0513)" d="M0 0C4.035 0 7.513-2.032 8.987-5.816H5.175C4.146-3.757 2.31-2.784 0-2.784-3.841-2.784-6.623-5.51-6.623-9.879-6.623-14.247-3.841-17.002 0-17.002 2.31-17.002 4.146-16.028 5.175-13.969H8.987C7.513-17.753 4.035-19.757 0-19.757-5.454-19.757-9.879-15.695-9.879-9.879-9.879-4.09-5.454 0 0 0" fill="#1a60ac"/>
<path transform="matrix(1,0,0,-1,281.3486,71.1231)" d="M0 0 7.513 8.821H11.493L3.089-.863 11.633-10.518H7.486L0-1.864" fill="#f2c516"/>
<path transform="matrix(1,0,0,-1,294.9727,62.3023)" d="M0 0H3.423L10.212-15.165 16.975 0H20.369V-19.338H17.197V-6.094L11.297-19.338H9.1L3.172-6.094V-19.338H0Z" fill="#1a60ac"/>
<path transform="matrix(1,0,0,-1,328.3447,79.082)" d="M0 0C3.84 0 6.622 2.784 6.622 7.151 6.622 11.521 3.84 14.247 0 14.247-3.84 14.247-6.622 11.521-6.622 7.151-6.622 2.784-3.84 0 0 0M0-2.754C-5.454-2.754-9.879 1.336-9.879 7.151-9.879 12.94-5.454 17.031 0 17.031 5.509 17.031 9.878 12.94 9.878 7.151 9.878 1.336 5.509-2.754 0-2.754" fill="#1a60ac"/>
<path transform="matrix(1,0,0,-1,357.2354,62.2744)" d="M0 0V-19.366H-3.172L-12.717-4.926V-19.366H-15.89V0H-12.717L-3.172-14.414V0Z" fill="#1a60ac"/>
<path transform="matrix(1,0,0,-1,372.0996,64.8623)" d="M0 0H-7.513V-5.677H-.834V-8.265H-7.513V-14.191H0V-16.778H-10.685V2.588H0Z" fill="#1a60ac"/>
<path transform="matrix(1,0,0,-1,374.3311,62.3023)" d="M0 0H3.533L8.014-9.489 12.493 0H15.999L9.6-12.327V-19.338H6.427V-12.327Z" fill="#1a60ac"/>
<path transform="matrix(1,0,0,-1,412.6143,73.015598)" d="M0 0H-4.174V-6.038H.112C2.254-6.038 3.563-4.952 3.563-3.089 3.563-1.168 2.116 0 0 0M-.249 8.126H-4.174V2.589H-.249C1.81 2.589 3.062 3.562 3.062 5.343 3.062 7.096 1.81 8.126-.249 8.126M.39-8.625H-7.346V10.713H.028C4.118 10.713 6.29 8.46 6.29 5.733 6.29 3.396 4.87 1.977 3.006 1.309 5.065 .947 6.734-1.112 6.734-3.422 6.734-6.372 4.342-8.625 .39-8.625" fill="#1a60ac"/>
<path transform="matrix(1,0,0,-1,425.9766,62.3023)" d="M0 0V-16.78H6.539V-19.338H-3.172V0Z" fill="#1a60ac"/>
<path transform="matrix(1,0,0,-1,443.9844,79.082)" d="M0 0C3.84 0 6.622 2.784 6.622 7.151 6.622 11.521 3.84 14.247 0 14.247-3.841 14.247-6.623 11.521-6.623 7.151-6.623 2.784-3.841 0 0 0M0-2.754C-5.454-2.754-9.879 1.336-9.879 7.151-9.879 12.94-5.454 17.031 0 17.031 5.509 17.031 9.878 12.94 9.878 7.151 9.878 1.336 5.509-2.754 0-2.754" fill="#1a60ac"/>
<path transform="matrix(1,0,0,-1,465.8057,62.0513)" d="M0 0C4.035 0 7.513-2.032 8.987-5.816H5.176C4.146-3.757 2.31-2.784 0-2.784-3.84-2.784-6.622-5.51-6.622-9.879-6.622-14.247-3.84-17.002 0-17.002 2.31-17.002 4.146-16.028 5.176-13.969H8.987C7.513-17.753 4.035-19.757 0-19.757-5.454-19.757-9.879-15.695-9.879-9.879-9.879-4.09-5.454 0 0 0" fill="#1a60ac"/>
<path transform="matrix(1,0,0,-1,477.7793,71.1231)" d="M0 0 7.513 8.821H11.492L3.089-.863 11.632-10.518H7.485L0-1.864" fill="#f2c516"/>
<path transform="matrix(1,0,0,-1,501.0479,62.0513)" d="M0 0C4.035 0 7.513-2.032 8.987-5.816H5.176C4.146-3.757 2.31-2.784 0-2.784-3.841-2.784-6.622-5.51-6.622-9.879-6.622-14.247-3.841-17.002 0-17.002 2.31-17.002 4.146-16.028 5.176-13.969H8.987C7.513-17.753 4.035-19.757 0-19.757-5.454-19.757-9.879-15.695-9.879-9.879-9.879-4.09-5.454 0 0 0" fill="#1a60ac"/>
<path transform="matrix(1,0,0,-1,526.0146,73.181697)" d="M0 0H-9.1V-8.459H-12.272V10.879H-9.1V2.587H0V10.879H3.171V-8.459H0Z" fill="#1a60ac"/>
<path transform="matrix(1,0,0,-1,540.9912,66.114299)" d="M0 0-3.173-8.987H3.144ZM4.034-11.576H-4.063L-5.454-15.526H-8.766L-1.837 3.84H1.837L8.765-15.526H5.427Z" fill="#1a60ac"/>
<path transform="matrix(1,0,0,-1,0,170.157)" d="M552.767 107.855H555.94V88.517009H552.767Z" fill="#1a60ac"/>
<path transform="matrix(1,0,0,-1,576.0039,62.2744)" d="M0 0V-19.366H-3.173L-12.717-4.926V-19.366H-15.89V0H-12.717L-3.173-14.414V0Z" fill="#1a60ac"/>
</g>
<use data-text="I" xlink:href="#font_1_4" transform="matrix(35.6037,0,0,-35.6037,161.021,114.3826)" fill="#9d1d23"/>
<use data-text="N" xlink:href="#font_1_5" transform="matrix(35.6037,0,0,-35.6037,170.42038,114.3826)" fill="#9d1d23"/>
<use data-text="D" xlink:href="#font_1_2" transform="matrix(35.6037,0,0,-35.6037,196.09066,114.3826)" fill="#9d1d23"/>
<use data-text="O" xlink:href="#font_1_6" transform="matrix(35.6037,0,0,-35.6037,221.33368,114.3826)" fill="#9d1d23"/>
<use data-text="N" xlink:href="#font_1_5" transform="matrix(35.6037,0,0,-35.6037,249.24698,114.3826)" fill="#9d1d23"/>
<use data-text="E" xlink:href="#font_1_3" transform="matrix(35.6037,0,0,-35.6037,274.91725,114.3826)" fill="#9d1d23"/>
<use data-text="S" xlink:href="#font_1_7" transform="matrix(35.6037,0,0,-35.6037,293.57359,114.3826)" fill="#9d1d23"/>
<use data-text="I" xlink:href="#font_1_4" transform="matrix(35.6037,0,0,-35.6037,315.07823,114.3826)" fill="#9d1d23"/>
<use data-text="A" xlink:href="#font_1_1" transform="matrix(35.6037,0,0,-35.6037,324.4776,114.3826)" fill="#9d1d23"/>
<g clip-path="url(#clip_2)">
<path transform="matrix(1,0,0,-1,113.0073,51.417497)" d="M0 0V-35.791L-30.998-53.691V-16.583L-61.997-.176V0L-30.998 17.891Z" fill="#1d5fac"/>
<path transform="matrix(1,0,0,-1,82.0093,68.001)" d="M0 0V-37.107L-30.999-19.207V16.408Z" fill="#f2c516"/>
<path transform="matrix(1,0,0,-1,102.6392,100.078098)" d="M0 0V-23.819L-20.63-35.725V-11.914L-41.251-.225V0L-20.63 11.904Z" fill="#1d5fac"/>
<path transform="matrix(1,0,0,-1,82.0093,111.9922)" d="M0 0V-23.811L-20.621-11.905V11.689Z" fill="#f2c516"/>
<path transform="matrix(1,0,0,-1,39.2437,77.697299)" d="M0 0 18.509-10.499V-34.293L0-23.505Z" fill="#f2c516"/>
<path transform="matrix(1,0,0,-1,39.2437,77.697299)" d="M0 0 18.509 11.354 36.904 .795V-23.505L18.509-34.293V-10.499Z" fill="#1d5fac"/>
<path transform="matrix(1,0,0,-1,125.8691,110.4004)" d="M0 0-43.858-25.321-87.717 0V50.644L-43.858 75.965 0 50.644ZM-43.858 97.767-106.598 61.544V-10.9L-43.858-47.123 18.881-10.9V61.544Z" fill="#1a60ac"/>
</g>
</g>
</svg>
